<svg width="28" height="30" viewBox="0 0 28 30" fill="none" xmlns="http://www.w3.org/2000/svg">
<path d="M10.1911 24.217C3.79352 26.1362 3.79352 21.0182 1.2345 20.3784M19.1476 28.0555V23.1038C19.1956 22.4937 19.1132 21.8803 18.9058 21.3045C18.6984 20.7288 18.3709 20.2037 17.9449 19.7643C21.9626 19.3165 26.1849 17.7938 26.1849 10.8077C26.1846 9.0213 25.4974 7.30339 24.2657 6.00955C24.8489 4.44664 24.8077 2.7191 24.1505 1.1858C24.1505 1.1858 22.6407 0.737973 19.1476 3.07948C16.215 2.28467 13.1237 2.28467 10.1911 3.07948C6.698 0.737973 5.18818 1.1858 5.18818 1.1858C4.531 2.7191 4.48975 4.44664 5.07303 6.00955C3.83206 7.31299 3.14419 9.04642 3.15376 10.8461C3.15376 17.781 7.37614 19.3037 11.3938 19.8027C10.9728 20.2377 10.6482 20.7564 10.441 21.3252C10.2337 21.8939 10.1486 22.5 10.1911 23.1038V28.0555" stroke="#D9D9D9" stroke-width="2" stroke-linecap="round" stroke-linejoin="round"/>
</svg>
