<svg width="25" height="25" viewBox="0 0 25 25" fill="none" xmlns="http://www.w3.org/2000/svg">
<path fill-rule="evenodd" clip-rule="evenodd" d="M21.057 21.0624H17.4946V15.487C17.4946 14.1581 17.4716 12.4478 15.6435 12.4478C13.7891 12.4478 13.5061 13.8963 13.5061 15.3924V21.0624H9.94758V9.5984H13.3625V11.166H13.4119C13.8876 10.2643 15.0497 9.31399 16.7826 9.31399C20.3906 9.31399 21.057 11.6873 21.057 14.775V21.0624ZM5.93072 8.03221C5.65927 8.0324 5.39044 7.97908 5.1396 7.87532C4.88876 7.77156 4.66084 7.61938 4.46885 7.42748C4.27686 7.23557 4.12457 7.00772 4.02069 6.75693C3.91681 6.50614 3.86337 6.23734 3.86343 5.96588C3.86343 5.41799 4.08109 4.89253 4.46851 4.50511C4.85593 4.11769 5.38138 3.90004 5.92928 3.90004C6.47717 3.90004 7.00263 4.11769 7.39005 4.50511C7.77747 4.89253 7.99512 5.41799 7.99512 5.96588C7.99525 6.51361 7.77785 7.03897 7.39073 7.42646C7.0036 7.81394 6.47845 8.03182 5.93072 8.03221ZM4.14641 21.0624H7.71263V9.5984H4.14689L4.14641 21.0624ZM22.8307 0.592773H2.35873C1.38106 0.592773 0.586914 1.36818 0.586914 2.3252V22.8813C0.586914 23.8383 1.38106 24.6147 2.35873 24.6147H22.8307C23.8108 24.6147 24.6078 23.8383 24.6078 22.8813V2.3252C24.6083 1.36818 23.8103 0.592773 22.8307 0.592773Z" fill="white"/>
</svg>
